PathFileType	4	(X/Y/Z)	24_2_102_p0_0-314_filt_butterworth.trc
DataRate	CameraRate	NumFrames	NumMarkers	Units	OrigDataRate	OrigDataStartFrame	OrigNumFrames
54.0	54.0	7	27	m	54.0	157	314
Frame#	Time	RHip			RKnee			RAnkle			RBigToe			RSmallToe			RHeel			LHip			LKnee			LAnkle			LBigToe			LSmallToe			LHeel			Neck			Head			Nose			RShoulder			RElbow			RWrist			RThumb			RIndex			RPinky			LShoulder			LElbow			LWrist			LThumb			LIndex			LPinky			
		X1	Y1	Z1	X2	Y2	Z2	X3	Y3	Z3	X4	Y4	Z4	X5	Y5	Z5	X6	Y6	Z6	X7	Y7	Z7	X8	Y8	Z8	X9	Y9	Z9	X10	Y10	Z10	X11	Y11	Z11	X12	Y12	Z12	X13	Y13	Z13	X14	Y14	Z14	X15	Y15	Z15	X16	Y16	Z16	X17	Y17	Z17	X18	Y18	Z18	X19	Y19	Z19	X20	Y20	Z20	X21	Y21	Z21	X22	Y22	Z22	X23	Y23	Z23	X24	Y24	Z24	X25	Y25	Z25	X26	Y26	Z26	X27	Y27	Z27	
157	2.9074074074074074	0.5013729193050024	0.8194225122022545	0.6601952165039044	0.4834001529842852	0.38052453807814424	0.6412127835065207	0.44364571230141164	-0.03474736059789155	0.7031269914909781	0.4259250160972008	-0.013514448563940032	0.5212542355828897	0.4961802513608751	-0.020209672242886	0.556623390891032	0.4338352238643385	-0.08260324699989276	0.7301344070253603	0.296900027652354	0.8087932920666356	0.6787994560539249	0.2660149853444598	0.391669295403693	0.620233750378023	0.22343901781214726	-0.03989261749442581	0.6866209759549976	0.24885666812333526	-0.02059521881326576	0.5126140606024716	0.1834047943493214	-0.033868198409240664	0.5537882164785123	0.23677430395024718	-0.11407465942872508	0.7700717064223517	0.4091157740775555	1.3138464465058715	0.7037330063806868	0.427065725025836	1.5706646424549575	0.6413800291347018	0.41121994187730454	1.4443778285617384	0.5549331870283013	0.5669448188447395	1.2487219016715965	0.658848892918055	0.6054205936096767	0.9788021085083443	0.6776294615917844	0.5444803812243049	0.8173227976717115	0.5473058417858673	0.4386213784192229	0.7545702894600798	0.48975805087199026	0.43840632130865936	0.7221414431020751	0.49288491045109273	0.44291963304983245	0.7101395428571171	0.5324629402412456	0.2684422208950386	1.2469745498629574	0.6399729270705635	0.23679011012962256	1.0233005479680914	0.620503939636083	0.33156291429268653	0.8462756231218401	0.5090777083540066	0.4183931679999582	0.7996188627234645	0.48444375639739423	0.42295776601549495	0.7617090127245529	0.48639503319130883	0.4067850518409599	0.7259477809347732	0.5352585952172559	
158	2.925925925925926	0.501501826588922	0.8203299599684599	0.6592734023520712	0.483286862140082	0.3799784264918813	0.6417078823977105	0.4435953961757039	-0.03446752882628623	0.7033264653657776	0.4259040920252284	-0.013446663378388068	0.5211796814839318	0.4951229320313418	-0.01977159161822868	0.5556930487321555	0.43407023439782183	-0.08273024156330241	0.7302937588196262	0.29695199488612095	0.8086018209511671	0.678668879888125	0.2660278522640086	0.3912528155340608	0.6201087001819902	0.22341822443541243	-0.040980032545734166	0.6877701297049097	0.24880787019708211	-0.02087159546584806	0.5110241417046991	0.1833924112527387	-0.03393012907456898	0.5538022892334329	0.23687087099994183	-0.11467797525822196	0.7709422786108412	0.4093569165182397	1.31387106300773	0.7036582767814559	0.4278727885951896	1.5701786293656808	0.639162532482165	0.4112050759436913	1.442969366436843	0.5546107840096953	0.5669346471769039	1.2495308462024177	0.6590164620620302	0.6053370161022428	0.9790003092924425	0.6772905127258861	0.5438637841098929	0.8173827342600787	0.5471018771862985	0.4377981988499784	0.7550540854546146	0.4896948581986695	0.43792391372009043	0.7220246184871497	0.4929583402161139	0.4429635291700245	0.7101460611488423	0.5324274240655332	0.26845065767767207	1.2469944308371395	0.6400036365892221	0.23739336511059947	1.0236009899910352	0.6215538551253259	0.3315697394722348	0.8462640968782928	0.5090989986686324	0.41891393695766643	0.7987097873193473	0.4861250624610698	0.42320891650382897	0.7613524708580806	0.4872671031682244	0.4076795934602107	0.7267486610577766	0.5343718517504659	
159	2.9444444444444446	0.5015792454155436	0.8214301983548357	0.6581021222699557	0.48308895494974946	0.3793223659319637	0.6424280643476874	0.4435544211923711	-0.034238848508092654	0.7034917262058754	0.4258837966853267	-0.013371376898799997	0.5210972592577438	0.49469412824241266	-0.018402283152321328	0.5536609159000093	0.43426633895999633	-0.08285330861015375	0.7304585468882986	0.29698623868845747	0.808453344928979	0.6785618181739757	0.2660136106927582	0.39081898983538843	0.620023654714463	0.22334468269321994	-0.042012544890610765	0.6885988558098464	0.2485528020989986	-0.02029401062572156	0.5088150541339146	0.183374731938179	-0.033935534252017105	0.5537902481992775	0.23692501576096608	-0.11506391888251088	0.7714562915108951	0.40971130243228715	1.3139063900100527	0.7033942427788955	0.4283768079861139	1.5695567712013756	0.6377476498505193	0.4111954638240384	1.4419979489344328	0.5543825272395082	0.5669295689648821	1.249878950223966	0.6590907135894495	0.6053091308715689	0.9790813469652688	0.6771392068118877	0.543074984641322	0.8174417207278378	0.5468514477660946	0.436908220754886	0.7556198446728876	0.4898827649192078	0.43737246310417954	0.7221245468666526	0.4929325993306449	0.4429332262517781	0.7102631915089245	0.5322428292838197	0.2684534089752291	1.2470042866569244	0.6400217617974842	0.23800468479250664	1.0236979555869612	0.6225597106994054	0.3315696359500404	0.8462553464743381	0.5091238241097735	0.41945616512048706	0.7985665298735576	0.48830232463064516	0.4236097735086916	0.7607405218046219	0.48879266752618433	0.40846448124184603	0.7277697580428986	0.5325639469710933	
160	2.962962962962963	0.5015756161340713	0.8224378096469803	0.6571495360370893	0.48281341183155646	0.3785729354094127	0.6433319025583611	0.4435219677673671	-0.034062262258066536	0.7036237757742205	0.42586677974883186	-0.013298154850663227	0.5210184328187949	0.494933882921601	-0.0163453184854771	0.5507610809750941	0.4343758224144452	-0.08297261508226106	0.7306668725499077	0.29699820476325184	0.8083382309288369	0.6784900654718854	0.2659802775395634	0.39041238136091816	0.6199651148478864	0.2232223387551261	-0.04277327609754984	0.6889792075202472	0.24821527691737325	-0.018714653398540254	0.5062435061421642	0.18335694137627706	-0.033876541245131966	0.5537490662191029	0.23692476763635928	-0.11517581293793813	0.771600942460298	0.41028689122877926	1.3139118908957814	0.7033504745416307	0.4285499966269043	1.5688860872229278	0.6372712966246808	0.4111952025617819	1.4414927749607982	0.5542558801539281	0.566924231357085	1.2498391531532846	0.6590970551628315	0.6053264572464031	0.9790807914097904	0.6771336221712125	0.542241673838569	0.817508508177216	0.5465514614795246	0.4361156168713091	0.7562347745472906	0.49018569719727384	0.4367634098142323	0.7225644664780015	0.4927217689347069	0.44283460981219813	0.7104158693004282	0.5319676812758343	0.2684471440131102	1.2469730232267542	0.6400213548885476	0.2386020669220732	1.0236077972463034	0.6230438534493556	0.33156690090482277	0.8462477817593755	0.509148316791876	0.41998278056910887	0.7991120179959799	0.4906957768372605	0.424103806028823	0.7599750855521556	0.49071467992631224	0.4090342509508331	0.7289636875391862	0.5300095307221497	
161	2.9814814814814814	0.5014793010218817	0.8232216279227165	0.6566002386787229	0.48247672171434103	0.37776702685683267	0.6443583801250434	0.4435017084573475	-0.03395803325417855	0.7037350063857604	0.425855970569194	-0.013240424821078331	0.5209561572751883	0.4957843036210618	-0.014059782766207493	0.5476043749985101	0.4343757832443149	-0.08306435216638217	0.7308742096738695	0.29699473527287185	0.8082526916738763	0.6784544985854494	0.2659261415661848	0.39002445510547795	0.6199419897075106	0.22305487139337352	-0.043204140777953384	0.68894695619913	0.247837816596375	-0.016387801545305183	0.5036760497074526	0.18334214953529995	-0.033771211398008226	0.553690759936226	0.23687814632415088	-0.11503018999121004	0.7714450264998004	0.4110776610055492	1.3138844501568934	0.7035902130848469	0.4285309199147737	1.5682863484002736	0.637512998820001	0.4112053816716385	1.4413426613178568	0.5542003107759456	0.5669172365830938	1.2496550886608624	0.6590863126880868	0.6053892486519479	0.9790285957363798	0.6772697998486259	0.5414672745382136	0.817572208456713	0.5462499516201973	0.43559551633618654	0.756816001473634	0.4905020170582294	0.43617473944148266	0.7232563163222319	0.49230377003453907	0.4426996423175114	0.7105370726318085	0.531718263377878	0.2684314892412037	1.2468819464966325	0.6400022621210627	0.23891847599854452	1.0234212468795703	0.6228603828526741	0.33156759983320827	0.8462386749958464	0.5091665567735095	0.4204850210305901	0.7999969475530633	0.49297543783390674	0.42463376178977696	0.75916632183248	0.49273731223248185	0.4093349694793463	0.7302093592273953	0.527002748127572	
162	3.0	0.501312767984539	0.8238238395098328	0.6562703466373199	0.48212224167082385	0.377016610325814	0.6453969595920094	0.4435001033041734	-0.03394223576762846	0.7038288417197844	0.42585371691575014	-0.013215730341493745	0.5209373144998427	0.49700233889638434	-0.012195992249182927	0.5451022153092261	0.4342866243190509	-0.08310255135163112	0.7309740658288365	0.2969881392411743	0.8082082502336998	0.6784480421109453	0.2658580320523339	0.3896548470433164	0.6199465781887029	0.2228487717804964	-0.043388874867651264	0.6886231734462951	0.24747941902083748	-0.01391909332414594	0.5015463563294011	0.1833316463540073	-0.03364675412597881	0.5536292677320264	0.2367969959989001	-0.11467850146784467	0.7710303091102204	0.41197300251344304	1.3138451089174221	0.7039548278709515	0.42851143523342317	1.5678874032238364	0.6380393641051227	0.41122246059265666	1.4413815596359727	0.5541902462414147	0.5669129610488808	1.2495619624349923	0.6590928765734192	0.6054999157431755	0.9789332627372145	0.677575455454483	0.540855739170794	0.8176201667288452	0.5460071940112327	0.4354428419325805	0.7572636993878135	0.4907893986577282	0.4357087121872565	0.7239265437905145	0.4919526857764015	0.44256005899403095	0.7105961531010864	0.5315858918388969	0.26841611515303315	1.2467978914896038	0.6399722283785526	0.23872054337198084	1.023142467392379	0.6223644404167566	0.3315746894399267	0.8462256379682273	0.5091753785303323	0.42092625470944955	0.8009700604154868	0.49480628950555383	0.4251398160753166	0.758415466803745	0.49459048148502216	0.40940510154979537	0.7312813468640863	0.5241682381596025	
163	3.0185185185185186	0.5010588226087987	0.824305137266349	0.6559640074939874	0.48179723427436183	0.376472681978238	0.6463064545499152	0.4435173354527137	-0.03399309121850791	0.7038820757905984	0.4258597419110558	-0.013234782542393617	0.5209846890470718	0.4982109457673686	-0.011333798382845983	0.5440467976207948	0.43416934982133504	-0.08309613984280209	0.730915208704609	0.2969839857816644	0.8082435786493655	0.6784690308987961	0.26581561410423127	0.38936807221079817	0.6199101901207049	0.22261807862817493	-0.043400586823373666	0.6880905502432465	0.24719797554087491	-0.011873619185618606	0.5002381596194494	0.18332760071955706	-0.03352526263815646	0.5535711309222702	0.23668090031380443	-0.11416846988236723	0.7703588655274218	0.41283341698340315	1.3138159949612271	0.7042899601269981	0.4285373382555666	1.5677483399399341	0.6384075940199228	0.41123391582120106	1.4414693715741598	0.554222634961526	0.5669135763798309	1.2496225298295913	0.6591245321678783	0.6055940748847262	0.9788603193270239	0.6778472836186581	0.5405021949985892	0.8176434595591773	0.5458728997243023	0.43560111925975376	0.757501757321257	0.4910467761177026	0.4353445227994963	0.7242960850719489	0.49219437000197563	0.4424313882359495	0.7105903466903891	0.5316055841792818	0.2684177516252671	1.2468634180660298	0.6399471545862379	0.23800988568136444	1.0225987499549825	0.6222830920482217	0.3315859974325165	0.8462072619363494	0.5091797861215276	0.4212273398710136	0.8018791329022386	0.4959146008042814	0.42554801872077064	0.7578232080132137	0.49603305839906375	0.40934068390437905	0.7318891434338717	0.5224367680511229	
